<svg width="580" height="400" xmlns="http://www.w3.org/2000/svg">
 <!-- Created with Method Draw - http://github.com/duopixel/Method-Draw/ -->
 <g>
  <title>background</title>
  <rect fill="#fff" id="canvas_background" height="402" width="582" y="-1" x="-1"/>
  <g display="none" overflow="visible" y="0" x="0" height="100%" width="100%" id="canvasGrid">
   <rect fill="url(#gridpattern)" stroke-width="0" y="0" x="0" height="100%" width="100%"/>
  </g>
 </g>
 <g>
  <title>Layer 1</title>
  <path d="m24.500002,49.18182c1,0 4,0 6,0c4.999998,0 7.377512,-1.169422 8.999998,0c2.565372,1.849018 3.548313,12.126675 6,19.999996c2.540222,8.157654 6.105408,16.97438 8,25c2.118217,8.972916 1.792805,21.013458 3,38.000008c0.853615,12.011307 1,25 1,37c0,11 -0.407722,21.052933 2,38c1.711212,12.044571 5.298119,28.157623 9,43c2.52655,10.129974 5.424202,20.88147 11,29c2.401917,3.497253 8.387917,8.585022 17,11c11.594368,3.251251 22.214539,2.448914 27,1c6.901688,-2.089661 15.623535,-13.809875 19,-26c4.922012,-17.77002 7.499725,-49.975037 8,-65c0.665558,-19.988922 0,-36 0,-59c0,-17.000008 0.783279,-31.501144 5,-45.000008c3.333618,-10.671783 11.979675,-20.750961 23,-26c6.572632,-3.130577 19.670349,-8.483925 30,-9.999996c5.936401,-0.871281 15.791153,-3.232674 22,0c10.82695,5.637112 11.212982,23.966434 13,35.999996c3.407135,22.943222 5,41.000008 5,61.000008c0,18 1.58754,33.956451 3,57c1.714142,27.965363 0.366547,45.299011 5,66c2.970886,13.273041 6.928925,20.928925 14,28c7.071075,7.071075 14.953308,9.499023 23,10c4.990326,0.310699 13.742676,-2.4935 19,-11c5.877838,-9.510559 10.536224,-41.936401 13,-65c2.558136,-23.946945 1.571777,-49.005096 2,-67c0.500153,-21.017853 4.069916,-40.989441 6,-54.000008c3.112854,-20.983566 7.454285,-34.452354 15,-43c10.295227,-11.662254 26.973236,-18.49968 41,-18.999996c14.990479,-0.534691 28.112457,-1.34005 38,7.999996c10.331848,9.759758 15.693726,26.859756 19,45c2.535797,13.912933 2,32.000008 2,52.000008c0,26 -0.191406,44.011658 1,62c0.861664,13.009903 4.365845,28.897461 7,39c2.326141,8.921265 6,14 10,18c3,3 6.925781,4.497559 12,5c1.990265,0.197083 5.269257,-3.885101 9,-13c3.23645,-7.907288 7.815094,-24.806046 11,-40c2.698456,-12.873169 4.412109,-28.947296 6,-43c1.352051,-11.965454 0.005798,-24.030914 1,-40c0.500977,-8.046677 2.533752,-17.096603 4,-23c2.286835,-9.207092 7.743652,-14.17907 12,-20.000008c3.77948,-5.168724 7.127014,-7.678619 10,-9c5.297485,-2.436501 12,-6 17,-8l5,-2l3,0l1,0" id="svg_3" stroke-width="1.5" stroke="#000" fill="none"/>
 </g>
</svg>