<svg width="580" height="400" xmlns="http://www.w3.org/2000/svg">
 <!-- Created with Method Draw - http://github.com/duopixel/Method-Draw/ -->
 <g>
  <title>background</title>
  <rect fill="#fff" id="canvas_background" height="402" width="582" y="-1" x="-1"/>
  <g display="none" overflow="visible" y="0" x="0" height="100%" width="100%" id="canvasGrid">
   <rect fill="url(#gridpattern)" stroke-width="0" y="0" x="0" height="100%" width="100%"/>
  </g>
 </g>
 <g>
  <title>Layer 1</title>
  <path d="m70.5,49.18182c-1,0 -3.176971,-0.345184 -8,-2c-4.230072,-1.45137 -6,-2 -10,-2c-3,0 -6.761078,2.415897 -10,4c-2.840721,1.389351 -5.346191,2.70546 -7,5c-1.307453,1.813992 -2.458805,3.693436 -3,5c-0.382683,0.923878 0,2 0,3c0,1.999996 0,4.999996 0,5.999996c0,2 -0.065857,2.144295 2,3c2.921562,1.210152 6.064564,2.199089 11,3c3.121445,0.506538 7,1 10,1c3,0 3.850758,-0.210052 8,-3c4.838806,-3.253609 6.367729,-6.563919 10,-9.999996c2.61927,-2.477791 4.486259,-3.82375 5,-6c0.459503,-1.946499 0,-3 0,-4c0,0 0,0 0,1c0,1 0,3 0,7c0,4.999996 0,10.999996 0,15.999996c0,5 0.488731,12.029968 0,16c-2.015099,16.368851 -7.85862,22.691475 -10,30c-1.710335,5.837364 -4.79488,10.220222 -8,13.000008c-3.777271,3.276016 -8.988781,4.069824 -15,5c-6.9879,1.081314 -14.072172,1.756424 -17.999998,1c-5.287996,-1.018372 -6,-4 -6,-8c0,-4 0,-9.000008 0,-15.000008c0,-6 3.410921,-12.692375 8,-16c3.627985,-2.614906 8.978983,-5.065407 11.999998,-6c6.954899,-2.151596 10.861942,-3.475456 17,-5c5.903397,-1.466263 12.182709,-1.605225 19,-5c7.216965,-3.593803 11,-6 15,-8c2,-1 4.296997,-2.613838 7,-5c3.352661,-2.959671 6.821075,-5.298691 10,-7c1.763351,-0.943718 4.414215,-0.414215 3,1c-0.707108,0.707108 -1.811455,1.134644 -4,4c-1.919479,2.513084 -1.851952,5.228363 -3,8c-0.541199,1.306564 -2,3 -2,4c0,2 -0.382683,3.076118 0,4c0.541199,1.306564 4.823746,1.486259 7,2c6.812744,1.608269 12,0 18,0c6,0 13,-2 17,-6c3,-3 4.95517,-5.549156 6,-9c0.579575,-1.914185 0.467636,-5.198921 -1,-8c-2.320526,-4.428894 -6.337814,-7.240425 -13,-9.999996c-9.421753,-3.902622 -16,-3 -19,-3c-4,0 -7.323669,-0.479836 -9,1c-2.703003,2.386162 -2.693436,5.458805 -4,6c-0.923882,0.382683 -1,1 0,1c1,0 2,0 3,0c6,0 9.763046,-1.380554 16,-5c5.801987,-3.367027 11.229355,-5.331982 15,-7c3.297333,-1.458637 7.025818,-2.679634 9,-3c3.121445,-0.506542 7,-2 10,-2c4,0 6,0 9,0c1,0 4.080246,-0.310741 7,-1c2.176254,-0.513744 4,-1 4,-1c0,-1 0,0 -2,2c-3,3 -5.346191,4.70546 -7,7c-1.307449,1.813992 -1.458801,3.693436 -2,5c-0.765366,1.847759 0,3 0,4c0,0 0.458801,0.693436 1,2c0.38269,0.923878 1.963837,2.115864 5,2.999996c3.958679,1.152771 6.925797,2.497551 12,3c0.995132,0.098541 6,0 9,0c1,0 2.789841,-1.078438 4,-4c0.855713,-2.065853 1,-3.999996 1,-5.999996c0,-3 0,-6 0,-8c0,-2 -0.881516,-4.190277 -4,-6c-1.93399,-1.122341 -4,-3 -7,-3c-3,0 -6,0 -8,0c-2,0 -2,0 -2,0c0,0 0,1 0,1c1,0 2,0 6,0c8,0 17,1 33,1c7,0 14,0 18,0c5,0 9,0 11,0c1,0 2,0 2,0c0,-1 -1,-1 -4,-1c-5,0 -8.88855,3.194092 -14,6c-3.920303,2.152031 -8.519287,4.558189 -11,8c-1.307449,1.813992 -2.458801,2.693436 -3,4c-0.765366,1.847759 -1,3.999996 -1,6.999996c0,1 0,2 0,3c0,0 0.823746,1.486259 3,2c3.89299,0.919014 8,0 12,0c2,0 4.513,-0.593994 6,-3c1.662506,-2.689995 1.658478,-8.150532 4,-12.999996c3.505539,-7.260246 7,-14 9,-20c2,-6.000002 3.496231,-11.907789 4,-16.000002c0.610916,-4.962537 0,-7.999999 0,-9.999999c0,-1 0,0 0,0c0,3 0,7.999999 -2,14.999999c-2,7.000002 -4.990234,20.790258 -6,28.000002c-0.832214,5.942005 0,10 0,18.999996c0,6 -0.406006,12.504326 2,17c0.667313,1.24688 1,2 2,2c2,0 6.080246,0.689262 9,0c2.176239,-0.513741 4.648865,-3.19577 7,-7c2.628662,-4.253258 3.147736,-8.943413 5,-14c2.175385,-5.938667 3.17395,-11.168777 5,-17.999996c1.390686,-5.202503 3,-12 3,-17c0,-4.000002 0.770233,-8.026752 1,-9.000002c0.513733,-2.17625 2,-3 2,-3c0,3 -0.069824,5.988779 -1,12.000002c-1.081299,6.9879 -1.587585,15.017036 -2,20c-0.501709,6.062038 0.148041,11.228359 -1,13.999996c-0.541199,1.306564 -1,2 -1,3c0,2 -0.459503,-0.053505 0,-2c1.027496,-4.352501 1.558197,-7.519279 5,-9.999996c1.813995,-1.307453 5.823761,-3.486256 8,-4c1.946503,-0.459507 4,0 5,0c1,0 1.234619,0.152241 2,2c0.541199,1.306564 1.569519,2.132999 3,5.999996c0.775787,2.097176 2,4 2,6c0,1 0,3 0,5c0,2 -1.693451,4.458801 -3,5c-0.923889,0.382683 -2,0 -4,0c-2,0 -3.823761,0.486259 -6,1c-2.919739,0.689262 -5.647491,1.972511 -10,3c-0.973236,0.229752 -3,1 -3,1c-1,1 0,1 1,1c2,0 6.012573,0.354446 11,0c7.053284,-0.501259 11.747467,-3.787323 20,-6c5.875244,-1.575279 9.0979,-2.824432 11,-4c1.701294,-1.05146 3,-1 4,-2c0,0 1,-2 2,-4c1,-2 0.968567,-6.412075 3,-9.999996c0.696777,-1.230648 1,-3 1,-3c0,0 0,2 0,3c0,2 0,7.999996 0,12.999996c0,7 3.786377,14.178658 8,19c3.837097,4.390511 6,6 10,6c5,0 11.088654,-3.941841 15,-10c5.117065,-7.925629 6.691254,-14.0718 8,-19c0.811646,-3.056343 1,-5 1,-5.999996c0,0 -0.591217,0.029202 0,5.999996c0.502441,5.074203 2.05481,13.99334 3,22c1.061615,8.992943 2,18 2,29c0,11.000008 0,27.000008 0,32.000008c0,4 1.169434,6.377518 0,8c-1.84903,2.565369 -11.967651,6.116898 -19,8c-7.965576,2.132996 -16.142944,3.407455 -23,2c-7.460236,-1.531265 -10.569519,-6.132996 -12,-10c-0.775787,-2.097168 -1,-5 -1,-8c0,-3 -0.614899,-7.372009 2,-11c4.961426,-6.883621 12.824799,-10.161865 23,-21.000008c4.38266,-4.668205 10.606415,-9.549011 16,-13c5.650543,-3.61541 8.907776,-5.496223 13,-6c3.970032,-0.488731 6.907776,-0.496223 11,-1c3.970032,-0.488731 9.079712,-1.847969 13,-4c5.11145,-2.805908 9.953278,-5.071938 13,-7c4.927216,-3.118095 6.540497,-5.053505 7,-7c0.513733,-2.176254 1,-3 1,-5c0,-2 0.307465,-5.186005 -1,-7c-0.826904,-1.14727 -4,-3 -7,-3c-3,0 -5.22937,-0.668015 -9,1c-3.297333,1.458641 -4.486267,1.823746 -5,4c-0.229767,0.973251 0,3 0,4c0,2 0.624603,4.118088 -1,11c-0.726532,3.077682 -1,5 -1,7c0,1 -0.613129,2.91761 2,4c2.771637,1.148048 8,1 14,1c6,0 13,0 19,0c5,0 7.693451,0.458801 9,1c0.923889,0.382683 2.458801,-0.306564 3,1c0.765381,1.847755 0,5 0,11c0,5 0,9 0,14c0,4.000008 -1.286774,8.305077 -5,16.000008c-2.534149,5.251495 -5.442108,10.078049 -10,15c-3.961853,4.278305 -8.671356,7.497406 -13,10c-6.59317,3.811829 -14.759216,6.443817 -20,9c-12.518677,6.105942 -20.694336,9.197052 -42,14c-17.801575,4.013016 -29,5 -43,5c-10,0 -19,0 -27,0c-14,0 -25.07666,-1.316483 -37,-3c-10.097885,-1.425781 -20.28981,-2.601212 -38,-7c-9.207092,-2.286819 -19.009079,-4.929871 -27,-6c-7.008499,-0.938568 -11.93364,-2.366455 -22,-4c-7.95816,-1.291428 -17,-2 -26,-2c-6,0 -14,0 -21,0c-3,0 -6,0 -7,0c-1,0 -1,1 -1,2c0,1 2.496223,2.907791 3,7c0.610916,4.96254 1,10 1,18c0,4 0.486259,8.823746 1,11c0.919014,3.89299 0,6 0,11c0,2 0,4 0,7c0,1 0,4 0,7c0,2 0.493462,3.878555 1,7c0.480545,2.961258 0,5 0,7c0,1 1,3 1,7c0,1 1,2 1,3c0,0 0,2 0,3c0,1 0,2 0,2c0,1 0,1 0,0c0,-4 0,-8 0,-13c0,-3 0,-10 0,-13c0,-2 0,-5 0,-9c0,-3 0,-7 0,-11c0,-7 -1,-11 -1,-16c0,-2 0,-4 0,-5c0,-1 -1,-3 -1,-5c0,-2 -0.458801,-2.693436 -1,-4c-0.765366,-1.847763 0,-4 -1,-6c0,0 0.707108,-2.292892 0,-3c-0.707108,-0.707108 -1,0 -1,0c0,-1 0,-1 -1,-2c-1,-1 -3.211678,-1.714127 -6,-4c-2.18734,-1.793198 -4,-2 -6,-2c-2,0 -5,0 -6,0c-2,0 -4,0 -5,0c-2,0 -3,0 -4,0c-2,0 -3,0 -5,0c-1,0 -2,0 -2,0c-1,0 0,0 0,0c3,0 7,0 11,0c6,0 16,0 23,0c10,0 19,0 26,0c5,0 7,0 10,0c3,0 4,0 6,0c0,0 1,-1 0,-1c-1,0 -3,0 -5,0c-4,0 -6.029968,-0.488739 -10,0c-4.092209,0.503769 -9,1 -13,1c-2,0 -5,0 -9,0c-2,0 -4,0 -4,0c-1,0 -2,0 -2,0c-1,0 -1,0 -1,1c0,0 0,1 0,2c0,1 -0.579567,3.085815 0,5c1.04483,3.450851 1.359268,5.051651 2,9c0.506538,3.121445 1,7 1,11c0,4 0,8 0,11c0,3 1,6 1,9c0,1 0,2 0,4c0,2 0,4 0,6c0,2 -0.329926,6.013626 0,10c0.501709,6.062042 0.770248,10.026749 1,11c0.513741,2.176254 1,3 1,4c0,1 0,1 1,2c0,0 0,1 0,1c1,0 2,0 2,0c1,0 0.692551,-1.186005 2,-3c1.653809,-2.29454 3.863251,-5.146805 6,-7c7.554535,-6.552017 12.763046,-10.380554 19,-14c5.801987,-3.367035 9.132996,-3.569504 13,-5c4.194351,-1.55159 6.228363,-1.851944 9,-3c1.306564,-0.541199 4,-1 6,-1c2,0 4,0 5,0c0,0 -0.041321,0.152771 -4,-1c-3.036163,-0.88414 -10,-2 -12,-2c-5,0 -9.160507,-1.378525 -15,0c-4.352509,1.027481 -9,4 -11,6c-2,2 -2.486252,2.823746 -3,5c-0.459503,1.946503 0,5 0,7c0,2 -0.919014,6.10701 0,10c0.513748,2.176254 1.418854,4.418854 3,6c1.581146,1.581146 6,3 9,3c5,0 9,0 12,0c4,0 7.367737,-3.563919 11,-7c2.619263,-2.477783 4.95517,-4.549149 6,-8c1.159134,-3.828369 2.486252,-6.823746 3,-9c0.459503,-1.946503 0,-3 0,-3c0,-1 0,0 0,0c0,1 0,3 0,4c0,2 0,4 0,4c0,3 0,4 0,6c0,1 0.61731,2.076126 1,3c0.541199,1.306564 2,1 4,2c2,1 3.132996,1.569504 7,3c2.097168,0.775803 3,1 5,1c1,0 3,0 4,0c2,0 4,-2 5,-4c1,-2 2.95517,-5.549149 4,-9c0.869354,-2.871277 1.458801,-5.693436 2,-7c0.765366,-1.847763 1,-3 0,-3c-1,0 0,2 0,3c0,1 0,3 0,5c0,2 0,4 0,6c0,1 0,2 0,4c0,0 0,1 0,1c0,1 0,1 0,3c0,0 -1,2 0,2c2,0 0,-3 0,-6c0,-8 0.547058,-15.112366 2,-20c1.534485,-5.161911 3.186005,-8.692551 5,-10c2.29454,-1.653809 4,-2 6,-2c2,0 4,0 5,1c1,1 2,1 3,3c1,2 1.144287,3.934143 2,6c1.210144,2.92157 0.359268,5.051651 1,9c0.506546,3.121445 1,4 1,5c0,1 1.458801,1.693436 2,3c0.38269,0.923874 -0.414215,3.585785 1,5c0.707108,0.707108 2.292892,0.292892 3,1c0.707108,0.707108 1,1 1,1c0,0 1,0 1,0c1,0 1,0 2,0c1,0 4.128723,0.869354 7,0c3.450851,-1.04483 7,-2 9,-4c2,-2 3.173096,-2.852737 4,-4c1.307465,-1.813995 2.103394,-3.906326 3,-5c2.285889,-2.78833 3,-6 3,-7c0,-1 0,-2 0,-2c0,0 0,0 0,-1c0,0 -0.425323,1.015091 0,7c1.002533,14.106552 3.801575,28.015594 5,42c0.858093,10.013184 1,16 1,23c0,10 0,19 0,29c0,11 0,15 0,16c0,1 -2,3 -7,3c-5,0 -10,0 -14,0c-2,0 -4.812653,-2.206818 -7,-4c-2.78833,-2.285889 -4.186005,-3.692535 -6,-5c-2.29454,-1.653809 -5.486252,-3.823761 -6,-6c-0.229752,-0.973236 0,-2 0,-4c0,-1 0.169159,-4.836365 5,-10c7.262344,-7.762634 10.020508,-13.974487 15,-18c3.477829,-2.811523 7.723999,-6.222717 11,-10c1.85318,-2.136749 5.346191,-2.705475 7,-5c1.307465,-1.813995 3.222717,-3.723999 7,-7c3.205109,-2.779785 5.918304,-6.112152 10,-9c2.943359,-2.082458 6.222717,-3.723999 10,-7c4.273499,-3.70639 8.658142,-6.367035 14,-11c3.777283,-3.276016 6.976135,-6.779968 11,-11c2.488129,-2.609436 3.789856,-4.07843 5,-7c0.855713,-2.065857 3,-4 3,-5c0,0 0,0 -1,0c-1,0 -3.651306,-0.712982 -7,3c-3.905212,4.330048 -8.428253,11.423355 -13,17c-2.689789,3.281006 -5,5 -6,8c-1,3 -3,6 -3,10c0,2 0,3 0,5c0,1 0.881531,4.190277 4,6c1.93399,1.122345 5,2 6,2c2,0 3.173096,0.147278 4,-1c2.614899,-3.627991 4.346863,-10.929871 6,-20c1.267914,-6.956467 2.496216,-17.907791 3,-22c0.366547,-2.977524 0,-5 0,-5c0,-1 0,0 0,0c0,1 -0.579559,4.085815 0,6c1.04483,3.450851 3.190277,6.881516 5,10c1.122345,1.93399 2,5 4,7c1,1 2,2 2,3l0,0l1,1l0,0" id="svg_1" stroke-width="1.5" stroke="#000" fill="none"/>
 </g>
</svg>